<?xml version="1.0" standalone="no"?>
<svg viewBox="0 0 200 200" xmlns="http://www.w3.org/2000/svg">
  <path fill="#F1A3A1" d="M30.5,-45.3C45.4,-37.9,67.4,-39.4,78.1,-31.2C88.8,-23,88.1,-5.2,77.4,5.2C66.7,15.7,46,18.8,35.1,29.2C24.2,39.7,23.2,57.6,14.6,68.8C6,80.1,-10.1,84.7,-23.6,80.6C-37.1,76.5,-47.9,63.7,-47.9,49.4C-47.8,35.2,-36.9,19.5,-40.2,5C-43.5,-9.4,-61,-22.6,-62.8,-32.8C-64.6,-43,-50.8,-50.2,-37.7,-58.5C-24.6,-66.7,-12.3,-76,-2.2,-72.5C7.8,-69,15.6,-52.7,30.5,-45.3Z" transform="translate(100 100)" />
</svg>
