<svg viewBox="0 0 500 500" xmlns="http://www.w3.org/2000/svg" xmlns:xlink="http://www.w3.org/1999/xlink" width="100%" id="blobSvg">
  <path id="blob" d="M385,282Q447,314,380.5,305.5Q314,297,336,348Q358,399,334.5,418Q311,437,280.5,425Q250,413,221,420Q192,427,160,422.5Q128,418,100,398.5Q72,379,124,326.5Q176,274,114.5,262Q53,250,34,212Q15,174,52,153.5Q89,133,143,155Q197,177,189.5,108.5Q182,40,216,85Q250,130,282,92Q314,54,317.5,103Q321,152,328,170Q335,188,388.5,188Q442,188,382.5,219Q323,250,385,282Z" fill="#B19FF9"></path>
</svg>