<?xml version="1.0" standalone="no"?>
<svg viewBox="0 0 200 200" xmlns="http://www.w3.org/2000/svg">
  <path fill="#F1A3A1" d="M21.1,-26.3C32.2,-30.1,49.5,-34.3,58.3,-30C67.1,-25.7,67.4,-12.9,63.1,-2.5C58.7,7.8,49.7,15.6,44.7,26.5C39.6,37.4,38.6,51.2,31.8,62.7C25.1,74.2,12.5,83.3,4.7,75.2C-3.1,67.1,-6.3,41.7,-15.2,31.4C-24.1,21.2,-38.7,26,-44.6,23.2C-50.5,20.5,-47.6,10.3,-48.6,-0.6C-49.6,-11.4,-54.6,-22.9,-52.4,-32C-50.2,-41.2,-40.9,-48,-31,-44.9C-21.1,-41.8,-10.6,-28.7,-2.8,-23.9C5,-19.1,9.9,-22.4,21.1,-26.3Z" transform="translate(100 100)" />
</svg>
