<?xml version="1.0" standalone="no"?>
<svg viewBox="0 0 200 200" xmlns="http://www.w3.org/2000/svg">
  <path fill="#E6E6FA" d="M44.6,-66.7C54.9,-62.9,58,-45.4,60.5,-30.4C63,-15.5,64.8,-2.9,64.2,10.1C63.7,23.1,60.7,36.6,53.2,47C45.6,57.5,33.4,64.9,19.5,71.2C5.5,77.5,-10.1,82.7,-19.8,76C-29.4,69.2,-33,50.5,-41.2,37.6C-49.4,24.8,-62.3,17.8,-62.9,9.4C-63.6,1,-52.1,-8.7,-46.7,-21.7C-41.4,-34.7,-42.3,-50.9,-35.5,-56.2C-28.7,-61.6,-14.4,-56,1.4,-58.2C17.2,-60.5,34.4,-70.4,44.6,-66.7Z" transform="translate(100 100)" />
</svg>
